<mxfile host="app.diagrams.net" modified="2024-05-08T23:39:19.518Z" agent="Mozilla/5.0 (Windows NT 10.0; Win64; x64) AppleWebKit/537.36 (KHTML, like Gecko) Chrome/124.0.0.0 Safari/537.36" etag="xsdJclzTJjC3pAWMrl6Q" version="24.3.1" type="device">
  <diagram id="C5RBs43oDa-KdzZeNtuy" name="Page-1">
    <mxGraphModel dx="1050" dy="557" grid="1" gridSize="10" guides="1" tooltips="1" connect="1" arrows="1" fold="1" page="1" pageScale="1" pageWidth="827" pageHeight="1169" math="0" shadow="0">
      <root>
        <mxCell id="WIyWlLk6GJQsqaUBKTNV-0" />
        <mxCell id="WIyWlLk6GJQsqaUBKTNV-1" parent="WIyWlLk6GJQsqaUBKTNV-0" />
        <mxCell id="XHfnpy3bCtqbpOQF8ukO-2" style="edgeStyle=orthogonalEdgeStyle;rounded=0;orthogonalLoop=1;jettySize=auto;html=1;exitX=0.5;exitY=1;exitDx=0;exitDy=0;entryX=0.5;entryY=0;entryDx=0;entryDy=0;" parent="WIyWlLk6GJQsqaUBKTNV-1" source="XHfnpy3bCtqbpOQF8ukO-0" edge="1">
          <mxGeometry relative="1" as="geometry">
            <mxPoint x="397" y="70" as="targetPoint" />
          </mxGeometry>
        </mxCell>
        <mxCell id="XHfnpy3bCtqbpOQF8ukO-0" value="Inicio" style="ellipse;whiteSpace=wrap;html=1;" parent="WIyWlLk6GJQsqaUBKTNV-1" vertex="1">
          <mxGeometry x="354" width="86" height="40" as="geometry" />
        </mxCell>
        <mxCell id="XHfnpy3bCtqbpOQF8ukO-4" style="edgeStyle=orthogonalEdgeStyle;rounded=0;orthogonalLoop=1;jettySize=auto;html=1;exitX=0.5;exitY=1;exitDx=0;exitDy=0;" parent="WIyWlLk6GJQsqaUBKTNV-1" target="XHfnpy3bCtqbpOQF8ukO-3" edge="1">
          <mxGeometry relative="1" as="geometry">
            <mxPoint x="397" y="90" as="sourcePoint" />
          </mxGeometry>
        </mxCell>
        <mxCell id="XHfnpy3bCtqbpOQF8ukO-6" style="edgeStyle=orthogonalEdgeStyle;rounded=0;orthogonalLoop=1;jettySize=auto;html=1;exitX=1;exitY=0.5;exitDx=0;exitDy=0;entryX=0;entryY=0.5;entryDx=0;entryDy=0;" parent="WIyWlLk6GJQsqaUBKTNV-1" source="XHfnpy3bCtqbpOQF8ukO-3" edge="1">
          <mxGeometry relative="1" as="geometry">
            <mxPoint x="520" y="170" as="targetPoint" />
          </mxGeometry>
        </mxCell>
        <mxCell id="XHfnpy3bCtqbpOQF8ukO-8" style="edgeStyle=orthogonalEdgeStyle;rounded=0;orthogonalLoop=1;jettySize=auto;html=1;exitX=0;exitY=0.5;exitDx=0;exitDy=0;" parent="WIyWlLk6GJQsqaUBKTNV-1" source="XHfnpy3bCtqbpOQF8ukO-3" edge="1">
          <mxGeometry relative="1" as="geometry">
            <mxPoint x="290" y="170" as="targetPoint" />
          </mxGeometry>
        </mxCell>
        <mxCell id="XHfnpy3bCtqbpOQF8ukO-3" value="s1[0] == s5[0]" style="rhombus;whiteSpace=wrap;html=1;" parent="WIyWlLk6GJQsqaUBKTNV-1" vertex="1">
          <mxGeometry x="347" y="120" width="100" height="100" as="geometry" />
        </mxCell>
        <mxCell id="XHfnpy3bCtqbpOQF8ukO-9" value="No" style="text;html=1;align=center;verticalAlign=middle;resizable=0;points=[];autosize=1;strokeColor=none;fillColor=none;" parent="WIyWlLk6GJQsqaUBKTNV-1" vertex="1">
          <mxGeometry x="300" y="138" width="40" height="30" as="geometry" />
        </mxCell>
        <mxCell id="XHfnpy3bCtqbpOQF8ukO-11" value="Si" style="text;html=1;align=center;verticalAlign=middle;resizable=0;points=[];autosize=1;strokeColor=none;fillColor=none;" parent="WIyWlLk6GJQsqaUBKTNV-1" vertex="1">
          <mxGeometry x="455" y="138" width="30" height="30" as="geometry" />
        </mxCell>
        <mxCell id="XHfnpy3bCtqbpOQF8ukO-15" style="edgeStyle=orthogonalEdgeStyle;rounded=0;orthogonalLoop=1;jettySize=auto;html=1;exitX=0.5;exitY=1;exitDx=0;exitDy=0;entryX=0.423;entryY=-0.02;entryDx=0;entryDy=0;entryPerimeter=0;" parent="WIyWlLk6GJQsqaUBKTNV-1" edge="1">
          <mxGeometry relative="1" as="geometry">
            <mxPoint x="225" y="200" as="sourcePoint" />
            <mxPoint x="220.3699999999999" y="239.39999999999998" as="targetPoint" />
          </mxGeometry>
        </mxCell>
        <mxCell id="XHfnpy3bCtqbpOQF8ukO-23" style="edgeStyle=orthogonalEdgeStyle;rounded=0;orthogonalLoop=1;jettySize=auto;html=1;exitX=0.5;exitY=1;exitDx=0;exitDy=0;entryX=0.5;entryY=0;entryDx=0;entryDy=0;" parent="WIyWlLk6GJQsqaUBKTNV-1" target="XHfnpy3bCtqbpOQF8ukO-22" edge="1">
          <mxGeometry relative="1" as="geometry">
            <mxPoint x="393.5" y="330" as="sourcePoint" />
          </mxGeometry>
        </mxCell>
        <mxCell id="XHfnpy3bCtqbpOQF8ukO-22" value="Fin" style="ellipse;whiteSpace=wrap;html=1;" parent="WIyWlLk6GJQsqaUBKTNV-1" vertex="1">
          <mxGeometry x="350.5" y="360" width="86" height="40" as="geometry" />
        </mxCell>
        <mxCell id="xF7HPVkYfVdL8Mctdbzc-0" value="Declarar re" style="rounded=0;whiteSpace=wrap;html=1;" vertex="1" parent="WIyWlLk6GJQsqaUBKTNV-1">
          <mxGeometry x="337" y="70" width="120" height="20" as="geometry" />
        </mxCell>
        <mxCell id="xF7HPVkYfVdL8Mctdbzc-1" value="Mostrar&amp;nbsp;&lt;div&gt;&lt;br&gt;&lt;div&gt;s1[0]&amp;nbsp; &amp;nbsp;s2[0]&amp;nbsp; s3[0]&amp;nbsp; s4[0] s5[0]&lt;/div&gt;&lt;/div&gt;" style="shape=parallelogram;perimeter=parallelogramPerimeter;whiteSpace=wrap;html=1;fixedSize=1;" vertex="1" parent="WIyWlLk6GJQsqaUBKTNV-1">
          <mxGeometry x="180" y="140" width="120" height="60" as="geometry" />
        </mxCell>
        <mxCell id="xF7HPVkYfVdL8Mctdbzc-7" value="" style="edgeStyle=orthogonalEdgeStyle;rounded=0;orthogonalLoop=1;jettySize=auto;html=1;" edge="1" parent="WIyWlLk6GJQsqaUBKTNV-1" source="xF7HPVkYfVdL8Mctdbzc-2" target="xF7HPVkYfVdL8Mctdbzc-5">
          <mxGeometry relative="1" as="geometry" />
        </mxCell>
        <mxCell id="xF7HPVkYfVdL8Mctdbzc-2" value="Mostrar&amp;nbsp;&lt;div&gt;&lt;br&gt;&lt;div&gt;s1[0]&amp;nbsp; &amp;nbsp;s2[0]&amp;nbsp; s3[0]&amp;nbsp; s4[0] s5[0]&lt;/div&gt;&lt;/div&gt;" style="shape=parallelogram;perimeter=parallelogramPerimeter;whiteSpace=wrap;html=1;fixedSize=1;" vertex="1" parent="WIyWlLk6GJQsqaUBKTNV-1">
          <mxGeometry x="510" y="140" width="120" height="60" as="geometry" />
        </mxCell>
        <mxCell id="xF7HPVkYfVdL8Mctdbzc-9" style="edgeStyle=orthogonalEdgeStyle;rounded=0;orthogonalLoop=1;jettySize=auto;html=1;exitX=0.5;exitY=1;exitDx=0;exitDy=0;entryX=0;entryY=0.5;entryDx=0;entryDy=0;" edge="1" parent="WIyWlLk6GJQsqaUBKTNV-1" source="xF7HPVkYfVdL8Mctdbzc-3" target="xF7HPVkYfVdL8Mctdbzc-8">
          <mxGeometry relative="1" as="geometry" />
        </mxCell>
        <mxCell id="xF7HPVkYfVdL8Mctdbzc-3" value="Asignar&amp;nbsp;&amp;nbsp;re = &quot;Aun sin suerte&quot;" style="rounded=0;whiteSpace=wrap;html=1;" vertex="1" parent="WIyWlLk6GJQsqaUBKTNV-1">
          <mxGeometry x="170" y="240" width="120" height="30" as="geometry" />
        </mxCell>
        <mxCell id="xF7HPVkYfVdL8Mctdbzc-10" style="edgeStyle=orthogonalEdgeStyle;rounded=0;orthogonalLoop=1;jettySize=auto;html=1;exitX=0.5;exitY=1;exitDx=0;exitDy=0;entryX=1;entryY=0.5;entryDx=0;entryDy=0;" edge="1" parent="WIyWlLk6GJQsqaUBKTNV-1" source="xF7HPVkYfVdL8Mctdbzc-5" target="xF7HPVkYfVdL8Mctdbzc-8">
          <mxGeometry relative="1" as="geometry" />
        </mxCell>
        <mxCell id="xF7HPVkYfVdL8Mctdbzc-5" value="Asignar re = &quot;Hemos encontrado algo!&quot;]" style="rounded=0;whiteSpace=wrap;html=1;" vertex="1" parent="WIyWlLk6GJQsqaUBKTNV-1">
          <mxGeometry x="530" y="240" width="120" height="30" as="geometry" />
        </mxCell>
        <mxCell id="xF7HPVkYfVdL8Mctdbzc-8" value="Imprimir re" style="shape=parallelogram;perimeter=parallelogramPerimeter;whiteSpace=wrap;html=1;fixedSize=1;" vertex="1" parent="WIyWlLk6GJQsqaUBKTNV-1">
          <mxGeometry x="335" y="270" width="120" height="60" as="geometry" />
        </mxCell>
      </root>
    </mxGraphModel>
  </diagram>
</mxfile>
